<?xml version="1.0" encoding="UTF-8"?>
<svg width="20px" height="20px" viewBox="0 0 20 20" version="1.1" xmlns="http://www.w3.org/2000/svg" xmlns:xlink="http://www.w3.org/1999/xlink">
    <title>res_orders</title>
    <defs>
        <filter id="filter-1">
            <feColorMatrix in="SourceGraphic" type="matrix" values="0 0 0 0 0.125490 0 0 0 0 0.125490 0 0 0 0 0.125490 0 0 0 1.000000 0"></feColorMatrix>
        </filter>
    </defs>
    <g id="Web" stroke="none" stroke-width="1" fill="none" fill-rule="evenodd" stroke-linecap="round" stroke-linejoin="round">
        <g id="Order_Balance" transform="translate(-1729.000000, -479.000000)">
            <g id="my-orders" transform="translate(1728.000000, 347.000000)" filter="url(#filter-1)">
                <g transform="translate(1.000000, 132.000000)">
                    <g id="Orion_invoice-(3)" transform="translate(3.000000, 1.000000)" stroke="#000000">
                        <path d="M2.66666667,4 L8,4 M2.66666667,9.33333333 L8,9.33333333 M2.66666667,6.66666667 L6.66666667,6.66666667 M2.66666667,12 L6.66666667,12 M10.6666667,4 L11.3333333,4 M10.6666667,9.33333333 L11.3333333,9.33333333 M10.6666667,6.66666667 L11.3333333,6.66666667 M10.6666667,12 L11.3333333,12" id="Shape"></path>
                        <polygon id="Shape" points="14 0 11.9666667 0 8 0 4 0 0 0 0 18 6 18 10 18 14 18"></polygon>
                    </g>
                </g>
            </g>
        </g>
    </g>
</svg>