<?xml version="1.0" encoding="UTF-8"?>
<svg width="20px" height="20px" viewBox="0 0 20 20" version="1.1" xmlns="http://www.w3.org/2000/svg" xmlns:xlink="http://www.w3.org/1999/xlink">
    <title>res_invite</title>
    <defs>
        <filter id="filter-1">
            <feColorMatrix in="SourceGraphic" type="matrix" values="0 0 0 0 0.125490 0 0 0 0 0.125490 0 0 0 0 0.125490 0 0 0 1.000000 0"></feColorMatrix>
        </filter>
    </defs>
    <g id="Web" stroke="none" stroke-width="1" fill="none" fill-rule="evenodd">
        <g id="Order_Balance" transform="translate(-1729.000000, -611.000000)">
            <g id="birthday-card" transform="translate(1728.000000, 347.000000)" filter="url(#filter-1)">
                <g transform="translate(1.000000, 264.000000)">
                    <path d="M17.7225428,6.42213081 C17.7174956,6.41697056 17.712373,6.41203631 17.7071374,6.40721506 C17.6186223,6.3241615 17.2820011,6.04430301 16.0685151,5.05865875 L16.0685151,1.50803422 C16.0685151,1.30000482 15.8998467,1.13137408 15.691855,1.13137408 L11.051741,1.13137408 L9.91675095,0.0981576338 C9.7731681,-0.0326187686 9.5537259,-0.0326941006 9.40995472,0.0978563057 L8.27206442,1.13137408 L3.63451172,1.13137408 C3.42651999,1.13137408 3.25785157,1.30000482 3.25785157,1.50803422 L3.25785157,5.04268836 C2.93354719,5.30815843 1.8046214,6.23380073 1.62017093,6.40638641 C1.61459636,6.41143366 1.60913479,6.41666923 1.60382388,6.42213081 C1.23774788,6.79690765 1.03615937,7.29161309 1.03615937,7.81520835 L1.03615937,17.2884747 C1.03615937,17.8385115 1.25545091,18.3508446 1.65358068,18.7311207 C1.65425867,18.731761 1.65489899,18.7323637 1.65557698,18.7329663 C2.02896018,19.0889855 2.51907037,19.2849994 3.03611175,19.2849994 L16.2902926,19.2849994 C16.807334,19.2849994 17.2974442,19.0889478 17.6707897,18.7329663 C17.6714677,18.732326 17.672108,18.7317233 17.672786,18.7311207 C18.0709158,18.3508446 18.290245,17.8384738 18.290245,17.2884747 L18.290245,7.81520835 C18.290245,7.29161309 18.0886188,6.79690765 17.7225428,6.42213081 Z M16.0685151,6.02953794 C16.3586187,6.26574151 16.6818308,6.52962961 16.9074502,6.71607638 L16.0685151,7.6086856 L16.0685151,6.02953794 Z M17.4143595,7.27677268 C17.4945127,7.44280447 17.536887,7.6259743 17.536887,7.81520835 L17.536887,17.2884747 C17.536887,17.502945 17.4832506,17.7082247 17.3821927,17.8898879 L12.3043619,12.7135605 L17.4143595,7.27677268 Z M9.66288201,0.885753997 L9.93268367,1.13137408 L9.39247769,1.13137408 L9.66288201,0.885753997 Z M4.01117186,1.88469437 L15.3151571,1.88469437 L15.3151571,8.41021838 L11.7763974,12.1753132 L11.0867704,11.4723147 C11.0159206,11.4001089 10.9190436,11.3594297 10.8178727,11.3594297 L8.50845633,11.3594297 C8.40728542,11.3594297 8.31040843,11.4001089 8.23955865,11.4723147 L7.54993159,12.1753132 L4.01117186,8.41018072 L4.01117186,1.88469437 Z M3.25785157,6.01707049 L3.25785157,7.60872326 L2.4170708,6.71415542 C2.6154577,6.54774696 2.90703031,6.30578049 3.25785157,6.01707049 Z M1.78947966,17.2884747 L1.78947966,7.81520835 C1.78947966,7.6259743 1.83185393,7.44280447 1.91200721,7.27677268 L7.02200473,12.7135605 L1.94417399,17.8898879 C1.84311607,17.7082247 1.78947966,17.502945 1.78947966,17.2884747 Z M16.2902926,18.5316791 L3.03611175,18.5316791 C2.84480606,18.5316791 2.6594516,18.4887022 2.49172484,18.4074566 L8.66665359,12.1127499 L10.6597884,12.1127499 L16.8347172,18.4074566 C16.6669527,18.4887022 16.4815983,18.5316791 16.2902926,18.5316791 Z" id="Shape" fill="#000000" fill-rule="nonzero"></path>
                    <path d="M7.85879291,8.95697825 C7.85536531,9.08108777 7.9133333,9.19894473 8.0137509,9.27197913 C8.11413082,9.34501353 8.24404091,9.36384654 8.36118221,9.32237626 L9.66318334,8.86074158 L10.9651845,9.32237626 C11.0061651,9.33691534 11.0487277,9.34403422 11.0910266,9.34403422 C11.1695979,9.34403422 11.2473406,9.31943831 11.3126158,9.27197913 C11.4130334,9.19894473 11.4710014,9.08108777 11.4675738,8.95697825 L11.4296064,7.58077508 L12.2717432,6.48951531 C12.3477532,6.39105634 12.3702021,6.26140992 12.3318205,6.14310097 C12.2934011,6.02479202 12.1991231,5.93307527 12.0797595,5.89800821 L10.7544808,5.50850396 L9.97358896,4.37242163 C9.90330418,4.27019607 9.78721752,4.20913946 9.66318334,4.20913946 C9.53914915,4.20913946 9.4230625,4.27023373 9.35277771,4.37242163 L8.5718859,5.50850396 L7.24660718,5.89800821 C7.12724358,5.93307527 7.03292788,6.02479202 6.99454621,6.14310097 C6.95612687,6.26140992 6.97861349,6.39105634 7.0546235,6.48951531 L7.89676025,7.58077508 L7.85879291,8.95697825 Z M8.91265033,6.19353576 C8.99570389,6.16912819 9.06783431,6.11684776 9.11687546,6.04550833 L9.66318334,5.25071775 L10.2094912,6.04550833 C10.2585324,6.11684776 10.3306628,6.16912819 10.4137163,6.19353576 L11.3387937,6.46540906 L10.7511662,7.22682754 C10.6981324,7.29556802 10.6704479,7.38054255 10.6728585,7.46732504 L10.6993754,8.42886306 L9.78902549,8.10610298 C9.74830853,8.0916769 9.70570827,8.08444502 9.66314567,8.08444502 C9.62058308,8.08444502 9.57798281,8.09163923 9.53726585,8.10610298 L8.62691595,8.42886306 L8.65343282,7.46732504 C8.65580578,7.38050488 8.62815892,7.29556802 8.57512518,7.22682754 L7.98749768,6.46540906 L8.91265033,6.19353576 Z" id="Shape" fill="#000000" fill-rule="nonzero"></path>
                    <path d="M7.19869601,16.4071653 C7.19869601,16.6151947 7.36736442,16.7838254 7.57535615,16.7838254 L11.7510105,16.7838254 C11.9590023,16.7838254 12.1276707,16.6151947 12.1276707,16.4071653 C12.1276707,16.1991359 11.9590023,16.0305051 11.7510105,16.0305051 L7.57535615,16.0305051 C7.36736442,16.0305051 7.19869601,16.1991359 7.19869601,16.4071653 Z" id="Path" fill="#000000" fill-rule="nonzero"></path>
                </g>
            </g>
        </g>
    </g>
</svg>