<?xml version="1.0" encoding="UTF-8"?>
<svg width="20px" height="20px" viewBox="0 0 20 20" version="1.1" xmlns="http://www.w3.org/2000/svg" xmlns:xlink="http://www.w3.org/1999/xlink">
    <title>res_vouchet</title>
    <defs>
        <filter id="filter-1">
            <feColorMatrix in="SourceGraphic" type="matrix" values="0 0 0 0 0.125490 0 0 0 0 0.125490 0 0 0 0 0.125490 0 0 0 1.000000 0"></feColorMatrix>
        </filter>
    </defs>
    <g id="Web" stroke="none" stroke-width="1" fill="none" fill-rule="evenodd">
        <g id="Order_Balance" transform="translate(-1729.000000, -391.000000)">
            <g id="gift-card" transform="translate(1728.000000, 347.000000)" filter="url(#filter-1)">
                <g transform="translate(1.000000, 44.000000)">
                    <path d="M19.3633566,14.4380724 C19.3633566,14.2111018 19.3633566,14.0408738 19.3633566,13.9273885 C19.3633566,12.1969022 19.3633566,9.6011727 19.3633566,6.14020005 C19.3633566,4.44559013 18.039307,3.066914 16.4119112,3.066914 L3.42580006,3.066914 C1.79840422,3.066914 0.474411167,4.44559013 0.474411167,6.14020005 L0.474411167,14.4380724 C0.474411167,16.1326823 1.79840422,17.5113584 3.42580006,17.5113584 L16.4119112,17.5113584 C18.039307,17.5113584 19.3633566,16.1326823 19.3633566,14.4380724 C19.3633566,14.0137284 18.2535682,14.0400777 18.2535682,14.4380724 C18.2535682,15.2853774 17.2256091,16.3638279 16.4119112,16.3638279 L3.42580006,16.3638279 C2.61210214,16.3638279 1.61961128,15.2853774 1.61961128,14.4380724 L1.61961128,9.14394532 L3.88474103,9.14394532 C4.18932436,10.0381947 5.00947844,10.5058193 5.97137297,10.5058193 C6.25658782,10.5058193 6.53649016,10.4365552 6.80252098,10.324918 C6.53173105,10.9342354 6.1253248,11.9903921 5.51623191,12.4267988 C5.18051143,12.6673218 5.0956221,13.1457172 5.32660518,13.4952651 C5.46971065,13.7118165 5.70039858,13.8281404 5.93514467,13.8281404 C6.07928313,13.8281404 6.22497106,13.7842308 6.35272931,13.6927237 C7.20475839,13.0822538 7.76496889,10.7733181 8.1295761,9.96135592 C8.49731915,10.7732413 9.05450448,13.0823307 9.90642289,13.6927237 C10.0341811,13.7842692 10.1798322,13.8281404 10.3240075,13.8281404 C10.5586798,13.8281404 10.7894415,13.7118165 10.932547,13.4952651 C11.1635301,13.1456788 11.0786408,12.6673218 10.7429203,12.4267988 C10.137037,11.9926971 9.7291182,10.9355031 9.45500796,10.3242266 C9.72151837,10.4362478 10.0019741,10.5058193 10.2877792,10.5058193 C11.2496738,10.5058193 12.0697909,10.0381947 12.3744112,9.14394532 L18.2535682,9.14394532 L18.2535682,14.4796041 M5.97137297,9.41025325 C5.56452401,9.41025325 5.23352575,9.0655458 5.23352575,8.64193173 C5.23352575,8.21827925 5.56452401,7.87361022 5.97137297,7.87361022 C6.31093026,7.87361022 6.80115596,8.24624615 7.19096065,8.64097133 M10.2877792,9.41025325 C9.94822193,9.41025325 9.45799624,9.03761731 9.06819155,8.64289213 C9.44626447,8.26115159 9.94095414,7.87361022 10.2877792,7.87361022 C10.6946282,7.87361022 11.0256264,8.21827925 11.0256264,8.64193173 M12.3744112,8.11839914 C12.0698278,7.22414973 11.2496738,6.50147374 10.2877792,6.50147374 C9.4499537,6.50147374 8.65783782,6.93399143 8.1295761,7.44999615 C7.60131438,6.93395301 6.80919849,6.50147374 5.97137297,6.50147374 C5.00947844,6.50147374 4.18936125,7.22414973 3.88474103,8.11839914 L1.61961128,8.11839914 L1.61961128,6.14020005 C1.61961128,5.29289509 2.61210214,4.21552484 3.42580006,4.21552484 L16.4119112,4.21552484 C17.2256091,4.21552484 18.2535682,5.29289509 18.2535682,6.14020005 L18.2535682,8.11839914" id="Shape" fill="#202020"></path>
                    <polygon id="Rectangle" fill="#202020" points="18.2521889 13.066914 19.3633001 13.066914 19.3633001 14.690701 18.2521889 15.2891362"></polygon>
                </g>
            </g>
        </g>
    </g>
</svg>