<?xml version="1.0" encoding="UTF-8"?>
<svg width="21px" height="23px" viewBox="0 0 21 23" version="1.1" xmlns="http://www.w3.org/2000/svg" xmlns:xlink="http://www.w3.org/1999/xlink">
    <title>D3784CC8-4F08-4668-8FB9-B1E943DB3FA4</title>
    <g id="Web" stroke="none" stroke-width="1" fill="none" fill-rule="evenodd">
        <g id="Nav_00" transform="translate(-311.000000, -103.000000)" fill="#202020" fill-rule="nonzero">
            <g id="menu" transform="translate(251.173825, 96.760036)">
                <g id="item" transform="translate(60.346307, 0.000000)">
                    <g id="notification" transform="translate(0.000000, 6.239964)">
                        <path d="M16.8888891,11.8082539 L16.8888891,9.65820312 C16.8888891,6.52166797 14.8261843,3.86323633 12.0000152,2.99494141 L12.0000152,2.02148438 C12.0000152,0.906837891 11.102818,0 10.0000213,0 C8.8972247,0 8.00002744,0.906837891 8.00002744,2.02148438 L8.00002744,2.99494141 C5.17381386,3.86323633 3.11115351,6.52162305 3.11115351,9.65820312 L3.11115351,11.8082539 C3.11115351,14.5634023 2.07213446,17.1758789 0.18551801,19.1644805 C0.000629686737,19.3593516 -0.0513257099,19.6468965 0.0534739695,19.8952246 C0.158273649,20.1435527 0.399606244,20.3046875 0.666716538,20.3046875 L6.73376465,20.3046875 C7.04345259,21.8406563 8.39029291,23 10.0000213,23 C11.6097942,23 12.9565456,21.8406563 13.266278,20.3046875 L19.3333261,20.3046875 C19.6004364,20.3046875 19.8417246,20.1435527 19.9465242,19.8952246 C20.0513239,19.6468965 19.9993685,19.3593516 19.8145246,19.1644805 C17.9279082,17.1758789 16.8888891,14.5633574 16.8888891,11.8082539 Z M9.3333567,2.02148438 C9.3333567,1.64993555 9.63242245,1.34765625 10.0000213,1.34765625 C10.3676202,1.34765625 10.666686,1.64993555 10.666686,2.02148438 L10.666686,2.72801563 C10.4472644,2.70663281 10.2249095,2.6953125 10.0000213,2.6953125 C9.77513312,2.6953125 9.55277825,2.70663281 9.3333567,2.72801563 L9.3333567,2.02148438 Z M10.0000213,21.6523438 C9.13091287,21.6523438 8.38989292,21.0889785 8.11469376,20.3046875 L11.8853489,20.3046875 C11.6101497,21.0889785 10.8691298,21.6523438 10.0000213,21.6523438 L10.0000213,21.6523438 Z M2.10360103,18.9570312 C3.62186305,16.8999687 4.44448276,14.4105781 4.44448276,11.8082539 L4.44448276,9.65820312 C4.44448276,6.56196289 6.93669736,4.04296875 10.0000213,4.04296875 C13.0633453,4.04296875 15.5555599,6.56196289 15.5555599,9.65820312 L15.5555599,11.8082539 C15.5555599,14.4105781 16.3781796,16.8999687 17.8964861,18.9570312 L2.10360103,18.9570312 Z" id="Shape"></path>
                    </g>
                </g>
            </g>
        </g>
    </g>
</svg>