<svg xmlns="http://www.w3.org/2000/svg" width="24" height="24" viewBox="0 0 24 24">
    <g fill="none" fill-rule="evenodd" stroke-linecap="round" stroke-linejoin="round">
        <g stroke="#202020">
            <g>
                <g>
                    <g>
                        <path d="M15.186 12.01l-2.776-1.815c-.578-.366-1.342-.213-1.734.347-.64.774-1.415 2.055-4.324-.854-2.91-2.909-1.655-3.71-.88-4.35.56-.393.712-1.157.346-1.735L4.003.828C3.763.48 3.443-.08 2.696.027 1.948.134 0 1.227 0 3.63c0 2.402 1.895 5.338 4.484 7.927 2.589 2.588 5.524 4.457 7.9 4.457 2.375 0 3.523-2.136 3.603-2.67.08-.533-.454-1.094-.801-1.334z" transform="translate(-1260 -794) translate(212 267) translate(909 527) translate(139) translate(5 4)"/>
                    </g>
                </g>
            </g>
        </g>
    </g>
</svg>
