<svg xmlns="http://www.w3.org/2000/svg" width="29" height="29" viewBox="0 0 29 29">
    <defs>
        <filter id="h1ixkdfzwa">
            <feColorMatrix in="SourceGraphic" values="0 0 0 0 0.125490 0 0 0 0 0.125490 0 0 0 0 0.125490 0 0 0 1.000000 0"/>
        </filter>
    </defs>
    <g fill="none" fill-rule="evenodd">
        <g>
            <g>
                <g filter="url(#h1ixkdfzwa)" transform="translate(-1542 -606) translate(1542 342) translate(0 264)">
                    <g fill="#000" fill-rule="nonzero">
                        <path d="M16.723 6.422l-.016-.015c-.088-.083-.425-.363-1.638-1.348V1.508c0-.208-.17-.377-.377-.377h-4.64L8.917.098c-.144-.13-.363-.13-.507 0L7.272 1.13H2.635c-.208 0-.377.169-.377.377v3.535C1.934 5.308.805 6.233.62 6.406l-.016.016c-.366.375-.568.87-.568 1.393v9.473c0 .55.22 1.063.618 1.443l.002.002c.373.356.863.552 1.38.552H15.29c.517 0 1.007-.196 1.38-.552l.003-.002c.398-.38.617-.893.617-1.443V7.815c0-.523-.201-1.018-.567-1.393zm-1.654-.392c.29.236.613.5.838.686l-.838.893v-1.58zm1.345 1.247c.08.166.123.349.123.538v9.473c0 .215-.054.42-.155.602l-5.078-5.176 5.11-5.437zM8.663.886l.27.245h-.54l.27-.245zm-5.652.999h11.304V8.41l-3.539 3.765-.69-.703c-.07-.072-.167-.113-.268-.113h-2.31c-.1 0-.198.041-.268.113l-.69.703L3.01 8.41V1.885zm-.753 4.132V7.61l-.84-.895c.197-.166.489-.408.84-.697zM.789 17.288V7.815c0-.189.043-.372.123-.538l5.11 5.437L.944 17.89c-.1-.182-.155-.387-.155-.602zm14.501 1.244H2.036c-.191 0-.377-.043-.544-.125l6.175-6.294H9.66l6.175 6.294c-.168.082-.353.125-.545.125z" transform="translate(6 5)"/>
                        <path d="M6.859 8.957c-.004.124.054.242.155.315.1.073.23.092.347.05l1.302-.461 1.302.461c.041.015.084.022.126.022.079 0 .156-.025.222-.072.1-.073.158-.19.155-.315l-.038-1.376.842-1.091c.076-.099.098-.229.06-.347-.039-.118-.133-.21-.252-.245l-1.326-.39-.78-1.136c-.07-.102-.187-.163-.31-.163-.125 0-.24.061-.311.163L7.572 5.51l-1.325.389c-.12.035-.214.127-.252.245-.039.118-.016.248.06.347l.842 1.09-.038 1.377zm1.054-2.763c.083-.025.155-.077.204-.148l.546-.795.546.795c.05.07.122.123.205.148l.925.271-.588.762c-.053.069-.08.154-.078.24l.026.962-.91-.323c-.04-.014-.083-.022-.126-.022-.042 0-.085.008-.126.022l-.91.323.026-.962c.003-.086-.025-.171-.078-.24l-.588-.762.926-.271zM6.199 16.407c0 .208.168.377.376.377h4.176c.208 0 .377-.169.377-.377s-.169-.376-.377-.376H6.575c-.208 0-.376.168-.376.376z" transform="translate(6 5)"/>
                    </g>
                </g>
            </g>
        </g>
    </g>
</svg>
