<svg xmlns="http://www.w3.org/2000/svg" width="29" height="29" viewBox="0 0 29 29">
    <defs>
        <filter id="b5wm15cila">
            <feColorMatrix in="SourceGraphic" values="0 0 0 0 0.125490 0 0 0 0 0.125490 0 0 0 0 0.125490 0 0 0 1.000000 0"/>
        </filter>
    </defs>
    <g fill="none" fill-rule="evenodd">
        <g>
            <g>
                <g filter="url(#b5wm15cila)" transform="translate(-1542 -386) translate(1542 342) translate(0 44)">
                    <g fill="#202020">
                        <path d="M19.363 11.438v-.51V3.14c0-1.694-1.324-3.073-2.951-3.073H3.426C1.798.067.474 1.446.474 3.14v8.298c0 1.695 1.324 3.073 2.952 3.073h12.986c1.627 0 2.951-1.378 2.951-3.073 0-.424-1.11-.398-1.11 0 0 .847-1.027 1.926-1.841 1.926H3.426c-.814 0-1.806-1.079-1.806-1.926V6.144h2.265c.304.894 1.124 1.362 2.086 1.362.286 0 .565-.07.832-.181-.271.61-.678 1.665-1.287 2.102-.335.24-.42.719-.19 1.068.144.217.374.333.61.333.143 0 .289-.044.417-.135.852-.61 1.412-2.92 1.777-3.732.367.812.925 3.121 1.776 3.732.128.091.274.135.418.135.235 0 .465-.116.609-.333.23-.35.146-.828-.19-1.068-.606-.434-1.014-1.491-1.288-2.103.267.112.547.182.833.182.962 0 1.782-.468 2.086-1.362h5.88v5.336M5.97 6.41c-.406 0-.737-.344-.737-.768 0-.424.33-.768.737-.768.34 0 .83.372 1.22.767m3.097.77c-.34 0-.83-.373-1.22-.768.378-.382.873-.77 1.22-.77.407 0 .738.345.738.769m1.348-.524c-.304-.894-1.124-1.617-2.086-1.617-.838 0-1.63.433-2.158.949-.529-.516-1.32-.949-2.159-.949-.962 0-1.782.723-2.086 1.617H1.62V3.14c0-.847.992-1.924 1.806-1.924h12.986c.814 0 1.842 1.077 1.842 1.924v1.978" transform="translate(5 8)"/>
                        <path d="M18.252 10.067L19.363 10.067 19.363 11.691 18.252 12.289z" transform="translate(5 8)"/>
                    </g>
                </g>
            </g>
        </g>
    </g>
</svg>
